<mxfile host="Electron" modified="2024-05-02T13:01:24.499Z" agent="Mozilla/5.0 (Windows NT 10.0; Win64; x64) AppleWebKit/537.36 (KHTML, like Gecko) draw.io/21.6.8 Chrome/114.0.5735.289 Electron/25.5.0 Safari/537.36" etag="fi10QjAhzkV9QcpM5gq_" version="21.6.8" type="device">
  <diagram name="Page-1" id="2ca16b54-16f6-2749-3443-fa8db7711227">
    <mxGraphModel dx="1418" dy="828" grid="1" gridSize="10" guides="1" tooltips="1" connect="1" arrows="1" fold="1" page="1" pageScale="1" pageWidth="1100" pageHeight="850" background="#ffffff" math="0" shadow="0">
      <root>
        <mxCell id="0" />
        <mxCell id="1" parent="0" />
        <mxCell id="2ed32ef02a7f4228-1" value="&lt;div style=&quot;box-sizing: border-box ; width: 100% ; padding: 2px&quot;&gt;&lt;br&gt;&lt;/div&gt;" style="verticalAlign=top;align=center;overflow=fill;html=1;rounded=0;shadow=0;comic=0;labelBackgroundColor=none;strokeColor=#000000;strokeWidth=1;fillColor=#ffffff;fontFamily=Verdana;fontSize=12;fontColor=#000000;" parent="1" vertex="1">
          <mxGeometry x="90" y="110" width="200" height="100" as="geometry" />
        </mxCell>
        <mxCell id="2ed32ef02a7f4228-18" style="edgeStyle=orthogonalEdgeStyle;html=1;labelBackgroundColor=none;startArrow=none;endArrow=none;fontFamily=Verdana;fontSize=12;align=left;exitX=1;exitY=0.5;exitDx=0;exitDy=0;entryX=0;entryY=0.5;entryDx=0;entryDy=0;startFill=0;endFill=0;rounded=0;" parent="1" source="2ed32ef02a7f4228-1" target="Gy9qdy7r6_L6vcuzWhop-12" edge="1">
          <mxGeometry relative="1" as="geometry">
            <mxPoint x="410" y="155" as="targetPoint" />
          </mxGeometry>
        </mxCell>
        <mxCell id="Gy9qdy7r6_L6vcuzWhop-9" value="0,n" style="text;html=1;resizable=0;points=[];align=center;verticalAlign=middle;labelBackgroundColor=#ffffff;direction=south;fontSize=16;" parent="2ed32ef02a7f4228-18" vertex="1" connectable="0">
          <mxGeometry x="-0.77" y="-1" relative="1" as="geometry">
            <mxPoint x="31" y="-1" as="offset" />
          </mxGeometry>
        </mxCell>
        <mxCell id="Gy9qdy7r6_L6vcuzWhop-12" value="&lt;div style=&quot;box-sizing: border-box ; width: 100% ; padding: 2px&quot;&gt;&lt;br&gt;&lt;/div&gt;" style="verticalAlign=top;align=center;overflow=fill;html=1;rounded=1;shadow=0;comic=0;labelBackgroundColor=none;strokeColor=#000000;strokeWidth=1;fillColor=#ffffff;fontFamily=Verdana;fontSize=12;fontColor=#000000;" parent="1" vertex="1">
          <mxGeometry x="390" y="125" width="180" height="70" as="geometry" />
        </mxCell>
        <mxCell id="Gy9qdy7r6_L6vcuzWhop-17" value="" style="edgeStyle=orthogonalEdgeStyle;rounded=0;orthogonalLoop=1;jettySize=auto;html=1;startArrow=none;startFill=0;endArrow=none;endFill=0;" parent="1" source="Gy9qdy7r6_L6vcuzWhop-16" target="Gy9qdy7r6_L6vcuzWhop-12" edge="1">
          <mxGeometry relative="1" as="geometry" />
        </mxCell>
        <mxCell id="Gy9qdy7r6_L6vcuzWhop-19" value="1,1" style="text;html=1;resizable=0;points=[];align=center;verticalAlign=middle;labelBackgroundColor=#ffffff;fontSize=16;" parent="Gy9qdy7r6_L6vcuzWhop-17" vertex="1" connectable="0">
          <mxGeometry x="-0.6462" relative="1" as="geometry">
            <mxPoint x="-38" as="offset" />
          </mxGeometry>
        </mxCell>
        <mxCell id="Gy9qdy7r6_L6vcuzWhop-16" value="&lt;div style=&quot;box-sizing: border-box ; width: 100% ; padding: 2px&quot;&gt;&lt;br&gt;&lt;/div&gt;" style="verticalAlign=top;align=center;overflow=fill;html=1;rounded=0;shadow=0;comic=0;labelBackgroundColor=none;strokeColor=#000000;strokeWidth=1;fillColor=#ffffff;fontFamily=Verdana;fontSize=12;fontColor=#000000;" parent="1" vertex="1">
          <mxGeometry x="680" y="103" width="200" height="114" as="geometry" />
        </mxCell>
        <mxCell id="SjU_2BTI9DgWFUzOwO9X-2" value="Utilisateurs" style="rounded=0;whiteSpace=wrap;html=1;" parent="1" vertex="1">
          <mxGeometry x="90" y="110" width="200" height="20" as="geometry" />
        </mxCell>
        <mxCell id="SjU_2BTI9DgWFUzOwO9X-3" value="Annonces" style="rounded=0;whiteSpace=wrap;html=1;" parent="1" vertex="1">
          <mxGeometry x="680" y="103" width="200" height="20" as="geometry" />
        </mxCell>
        <mxCell id="SjU_2BTI9DgWFUzOwO9X-4" value="&lt;u&gt;Email&lt;br&gt;&lt;/u&gt;Nom d&#39;utilisateur&lt;br&gt;Mot de passe&lt;br&gt;Administrateur&lt;br&gt;Bloqué" style="text;html=1;strokeColor=none;fillColor=none;align=left;verticalAlign=top;whiteSpace=wrap;rounded=0;" parent="1" vertex="1">
          <mxGeometry x="90" y="130" width="100" height="60" as="geometry" />
        </mxCell>
        <mxCell id="SjU_2BTI9DgWFUzOwO9X-6" value="&lt;u&gt;Texte&lt;/u&gt;&lt;br&gt;Texte&lt;br&gt;Texte&lt;br&gt;Bool&lt;br&gt;Bool" style="text;html=1;strokeColor=none;fillColor=none;align=left;verticalAlign=top;whiteSpace=wrap;rounded=0;" parent="1" vertex="1">
          <mxGeometry x="210" y="130" width="80" height="50" as="geometry" />
        </mxCell>
        <mxCell id="SjU_2BTI9DgWFUzOwO9X-8" value="&lt;u&gt;Numéro&lt;/u&gt;&lt;br&gt;Date de publication&lt;br&gt;Date d&#39;achat&lt;br&gt;Prix&lt;br&gt;Active&lt;br&gt;Bloqué" style="text;html=1;strokeColor=none;fillColor=none;align=left;verticalAlign=top;whiteSpace=wrap;rounded=0;" parent="1" vertex="1">
          <mxGeometry x="680" y="123" width="110" height="20" as="geometry" />
        </mxCell>
        <mxCell id="SjU_2BTI9DgWFUzOwO9X-10" value="&lt;u&gt;Num&lt;/u&gt;&lt;br&gt;Date&lt;br&gt;Date&lt;br&gt;Num&lt;br&gt;Bool&lt;br&gt;Bool" style="text;html=1;strokeColor=none;fillColor=none;align=left;verticalAlign=top;whiteSpace=wrap;rounded=0;" parent="1" vertex="1">
          <mxGeometry x="800" y="123" width="80" height="20" as="geometry" />
        </mxCell>
        <mxCell id="SjU_2BTI9DgWFUzOwO9X-13" value="" style="endArrow=none;html=1;entryX=1;entryY=0.25;entryDx=0;entryDy=0;exitX=0;exitY=0.25;exitDx=0;exitDy=0;" parent="1" source="Gy9qdy7r6_L6vcuzWhop-12" target="Gy9qdy7r6_L6vcuzWhop-12" edge="1">
          <mxGeometry width="50" height="50" relative="1" as="geometry">
            <mxPoint x="110" y="275" as="sourcePoint" />
            <mxPoint x="160" y="225" as="targetPoint" />
          </mxGeometry>
        </mxCell>
        <mxCell id="SjU_2BTI9DgWFUzOwO9X-14" value="Vendre" style="text;html=1;strokeColor=none;fillColor=none;align=center;verticalAlign=middle;whiteSpace=wrap;rounded=0;" parent="1" vertex="1">
          <mxGeometry x="414" y="125" width="120" height="20" as="geometry" />
        </mxCell>
        <mxCell id="T0Hc3pSAEqjk6suuljC6-1" value="" style="shape=table;html=1;whiteSpace=wrap;startSize=0;container=1;collapsible=0;childLayout=tableLayout;" parent="1" vertex="1">
          <mxGeometry x="90" y="610" width="320" height="110" as="geometry" />
        </mxCell>
        <mxCell id="T0Hc3pSAEqjk6suuljC6-2" value="" style="shape=partialRectangle;html=1;whiteSpace=wrap;collapsible=0;dropTarget=0;pointerEvents=0;fillColor=none;top=0;left=0;bottom=0;right=0;points=[[0,0.5],[1,0.5]];portConstraint=eastwest;" parent="T0Hc3pSAEqjk6suuljC6-1" vertex="1">
          <mxGeometry width="320" height="28" as="geometry" />
        </mxCell>
        <mxCell id="T0Hc3pSAEqjk6suuljC6-3" value="Projet" style="shape=partialRectangle;html=1;whiteSpace=wrap;connectable=0;overflow=hidden;fillColor=none;top=0;left=0;bottom=0;right=0;" parent="T0Hc3pSAEqjk6suuljC6-2" vertex="1">
          <mxGeometry width="100" height="28" as="geometry">
            <mxRectangle width="100" height="28" as="alternateBounds" />
          </mxGeometry>
        </mxCell>
        <mxCell id="T0Hc3pSAEqjk6suuljC6-4" value="TPI Vente de voiture d&#39;occasion" style="shape=partialRectangle;html=1;whiteSpace=wrap;connectable=0;overflow=hidden;fillColor=none;top=0;left=0;bottom=0;right=0;" parent="T0Hc3pSAEqjk6suuljC6-2" vertex="1">
          <mxGeometry x="100" width="220" height="28" as="geometry">
            <mxRectangle width="220" height="28" as="alternateBounds" />
          </mxGeometry>
        </mxCell>
        <mxCell id="T0Hc3pSAEqjk6suuljC6-5" value="" style="shape=partialRectangle;html=1;whiteSpace=wrap;collapsible=0;dropTarget=0;pointerEvents=0;fillColor=none;top=0;left=0;bottom=0;right=0;points=[[0,0.5],[1,0.5]];portConstraint=eastwest;" parent="T0Hc3pSAEqjk6suuljC6-1" vertex="1">
          <mxGeometry y="28" width="320" height="27" as="geometry" />
        </mxCell>
        <mxCell id="T0Hc3pSAEqjk6suuljC6-6" value="Titre" style="shape=partialRectangle;html=1;whiteSpace=wrap;connectable=0;overflow=hidden;fillColor=none;top=0;left=0;bottom=0;right=0;" parent="T0Hc3pSAEqjk6suuljC6-5" vertex="1">
          <mxGeometry width="100" height="27" as="geometry">
            <mxRectangle width="100" height="27" as="alternateBounds" />
          </mxGeometry>
        </mxCell>
        <mxCell id="T0Hc3pSAEqjk6suuljC6-7" value="SellBuyAuto" style="shape=partialRectangle;html=1;whiteSpace=wrap;connectable=0;overflow=hidden;fillColor=none;top=0;left=0;bottom=0;right=0;" parent="T0Hc3pSAEqjk6suuljC6-5" vertex="1">
          <mxGeometry x="100" width="220" height="27" as="geometry">
            <mxRectangle width="220" height="27" as="alternateBounds" />
          </mxGeometry>
        </mxCell>
        <mxCell id="T0Hc3pSAEqjk6suuljC6-8" value="" style="shape=partialRectangle;html=1;whiteSpace=wrap;collapsible=0;dropTarget=0;pointerEvents=0;fillColor=none;top=0;left=0;bottom=0;right=0;points=[[0,0.5],[1,0.5]];portConstraint=eastwest;" parent="T0Hc3pSAEqjk6suuljC6-1" vertex="1">
          <mxGeometry y="55" width="320" height="28" as="geometry" />
        </mxCell>
        <mxCell id="T0Hc3pSAEqjk6suuljC6-9" value="Auteur" style="shape=partialRectangle;html=1;whiteSpace=wrap;connectable=0;overflow=hidden;fillColor=none;top=0;left=0;bottom=0;right=0;" parent="T0Hc3pSAEqjk6suuljC6-8" vertex="1">
          <mxGeometry width="100" height="28" as="geometry">
            <mxRectangle width="100" height="28" as="alternateBounds" />
          </mxGeometry>
        </mxCell>
        <mxCell id="T0Hc3pSAEqjk6suuljC6-10" value="Maikol Correia Da Silva" style="shape=partialRectangle;html=1;whiteSpace=wrap;connectable=0;overflow=hidden;fillColor=none;top=0;left=0;bottom=0;right=0;" parent="T0Hc3pSAEqjk6suuljC6-8" vertex="1">
          <mxGeometry x="100" width="220" height="28" as="geometry">
            <mxRectangle width="220" height="28" as="alternateBounds" />
          </mxGeometry>
        </mxCell>
        <mxCell id="T0Hc3pSAEqjk6suuljC6-11" value="" style="shape=partialRectangle;html=1;whiteSpace=wrap;collapsible=0;dropTarget=0;pointerEvents=0;fillColor=none;top=0;left=0;bottom=0;right=0;points=[[0,0.5],[1,0.5]];portConstraint=eastwest;" parent="T0Hc3pSAEqjk6suuljC6-1" vertex="1">
          <mxGeometry y="83" width="320" height="27" as="geometry" />
        </mxCell>
        <mxCell id="T0Hc3pSAEqjk6suuljC6-12" value="Version" style="shape=partialRectangle;html=1;whiteSpace=wrap;connectable=0;overflow=hidden;fillColor=none;top=0;left=0;bottom=0;right=0;" parent="T0Hc3pSAEqjk6suuljC6-11" vertex="1">
          <mxGeometry width="100" height="27" as="geometry">
            <mxRectangle width="100" height="27" as="alternateBounds" />
          </mxGeometry>
        </mxCell>
        <mxCell id="T0Hc3pSAEqjk6suuljC6-13" value="v0.1 - 2 mai 2024" style="shape=partialRectangle;html=1;whiteSpace=wrap;connectable=0;overflow=hidden;fillColor=none;top=0;left=0;bottom=0;right=0;" parent="T0Hc3pSAEqjk6suuljC6-11" vertex="1">
          <mxGeometry x="100" width="220" height="27" as="geometry">
            <mxRectangle width="220" height="27" as="alternateBounds" />
          </mxGeometry>
        </mxCell>
        <mxCell id="4bNCkAOgMDDqKvrWJ21n-4" value="&lt;div style=&quot;box-sizing: border-box ; width: 100% ; padding: 2px&quot;&gt;&lt;br&gt;&lt;/div&gt;" style="verticalAlign=top;align=center;overflow=fill;html=1;rounded=1;shadow=0;comic=0;labelBackgroundColor=none;strokeColor=#000000;strokeWidth=1;fillColor=#ffffff;fontFamily=Verdana;fontSize=12;fontColor=#000000;" parent="1" vertex="1">
          <mxGeometry x="390" y="5" width="180" height="70" as="geometry" />
        </mxCell>
        <mxCell id="4bNCkAOgMDDqKvrWJ21n-7" value="" style="endArrow=none;html=1;entryX=1;entryY=0.25;entryDx=0;entryDy=0;exitX=0;exitY=0.25;exitDx=0;exitDy=0;" parent="1" source="4bNCkAOgMDDqKvrWJ21n-4" target="4bNCkAOgMDDqKvrWJ21n-4" edge="1">
          <mxGeometry width="50" height="50" relative="1" as="geometry">
            <mxPoint x="110" y="155" as="sourcePoint" />
            <mxPoint x="160" y="105" as="targetPoint" />
          </mxGeometry>
        </mxCell>
        <mxCell id="4bNCkAOgMDDqKvrWJ21n-8" value="Acheter" style="text;html=1;strokeColor=none;fillColor=none;align=center;verticalAlign=middle;whiteSpace=wrap;rounded=0;" parent="1" vertex="1">
          <mxGeometry x="414" y="5" width="120" height="20" as="geometry" />
        </mxCell>
        <mxCell id="4bNCkAOgMDDqKvrWJ21n-9" style="edgeStyle=orthogonalEdgeStyle;html=1;labelBackgroundColor=none;startArrow=none;endArrow=none;fontFamily=Verdana;fontSize=12;align=left;exitX=0.5;exitY=0;exitDx=0;exitDy=0;entryX=0;entryY=0.5;entryDx=0;entryDy=0;startFill=0;endFill=0;rounded=0;" parent="1" source="SjU_2BTI9DgWFUzOwO9X-2" target="4bNCkAOgMDDqKvrWJ21n-4" edge="1">
          <mxGeometry relative="1" as="geometry">
            <mxPoint x="280" y="-5.5" as="targetPoint" />
            <mxPoint x="180" y="-0.5" as="sourcePoint" />
          </mxGeometry>
        </mxCell>
        <mxCell id="4bNCkAOgMDDqKvrWJ21n-10" value="0,n" style="text;html=1;resizable=0;points=[];align=center;verticalAlign=middle;labelBackgroundColor=#ffffff;direction=south;fontSize=16;" parent="4bNCkAOgMDDqKvrWJ21n-9" vertex="1" connectable="0">
          <mxGeometry x="-0.77" y="-1" relative="1" as="geometry">
            <mxPoint x="-1" y="-39" as="offset" />
          </mxGeometry>
        </mxCell>
        <mxCell id="4bNCkAOgMDDqKvrWJ21n-11" value="" style="edgeStyle=orthogonalEdgeStyle;rounded=0;orthogonalLoop=1;jettySize=auto;html=1;startArrow=none;startFill=0;endArrow=none;endFill=0;entryX=1;entryY=0.5;entryDx=0;entryDy=0;exitX=0.5;exitY=0;exitDx=0;exitDy=0;" parent="1" source="SjU_2BTI9DgWFUzOwO9X-3" target="4bNCkAOgMDDqKvrWJ21n-4" edge="1">
          <mxGeometry relative="1" as="geometry">
            <mxPoint x="750" y="-5" as="sourcePoint" />
            <mxPoint x="640" y="-10" as="targetPoint" />
          </mxGeometry>
        </mxCell>
        <mxCell id="4bNCkAOgMDDqKvrWJ21n-12" value="0,1" style="text;html=1;resizable=0;points=[];align=center;verticalAlign=middle;labelBackgroundColor=#ffffff;fontSize=16;" parent="4bNCkAOgMDDqKvrWJ21n-11" vertex="1" connectable="0">
          <mxGeometry x="-0.6462" relative="1" as="geometry">
            <mxPoint y="-21" as="offset" />
          </mxGeometry>
        </mxCell>
        <mxCell id="4bNCkAOgMDDqKvrWJ21n-13" value="&lt;div style=&quot;box-sizing: border-box ; width: 100% ; padding: 2px&quot;&gt;&lt;br&gt;&lt;/div&gt;" style="verticalAlign=top;align=center;overflow=fill;html=1;rounded=1;shadow=0;comic=0;labelBackgroundColor=none;strokeColor=#000000;strokeWidth=1;fillColor=#ffffff;fontFamily=Verdana;fontSize=12;fontColor=#000000;" parent="1" vertex="1">
          <mxGeometry x="390" y="245" width="180" height="70" as="geometry" />
        </mxCell>
        <mxCell id="4bNCkAOgMDDqKvrWJ21n-14" value="Date d&#39;ajout" style="text;html=1;strokeColor=none;fillColor=none;align=left;verticalAlign=top;whiteSpace=wrap;rounded=0;" parent="1" vertex="1">
          <mxGeometry x="390" y="270" width="90" height="20" as="geometry" />
        </mxCell>
        <mxCell id="4bNCkAOgMDDqKvrWJ21n-15" value="Date" style="text;html=1;strokeColor=none;fillColor=none;align=left;verticalAlign=top;whiteSpace=wrap;rounded=0;" parent="1" vertex="1">
          <mxGeometry x="500" y="270" width="70" height="20" as="geometry" />
        </mxCell>
        <mxCell id="4bNCkAOgMDDqKvrWJ21n-16" value="" style="endArrow=none;html=1;entryX=1;entryY=0.25;entryDx=0;entryDy=0;exitX=0;exitY=0.25;exitDx=0;exitDy=0;" parent="1" source="4bNCkAOgMDDqKvrWJ21n-13" target="4bNCkAOgMDDqKvrWJ21n-13" edge="1">
          <mxGeometry width="50" height="50" relative="1" as="geometry">
            <mxPoint x="110" y="395" as="sourcePoint" />
            <mxPoint x="160" y="345" as="targetPoint" />
          </mxGeometry>
        </mxCell>
        <mxCell id="4bNCkAOgMDDqKvrWJ21n-17" value="Favoriser" style="text;html=1;strokeColor=none;fillColor=none;align=center;verticalAlign=middle;whiteSpace=wrap;rounded=0;" parent="1" vertex="1">
          <mxGeometry x="414" y="245" width="120" height="20" as="geometry" />
        </mxCell>
        <mxCell id="4bNCkAOgMDDqKvrWJ21n-18" style="edgeStyle=orthogonalEdgeStyle;html=1;labelBackgroundColor=none;startArrow=none;endArrow=none;fontFamily=Verdana;fontSize=12;align=left;exitX=0.5;exitY=1;exitDx=0;exitDy=0;entryX=0;entryY=0.5;entryDx=0;entryDy=0;startFill=0;endFill=0;rounded=0;" parent="1" source="2ed32ef02a7f4228-1" target="4bNCkAOgMDDqKvrWJ21n-13" edge="1">
          <mxGeometry relative="1" as="geometry">
            <mxPoint x="330" y="260" as="targetPoint" />
            <mxPoint x="130" y="345" as="sourcePoint" />
          </mxGeometry>
        </mxCell>
        <mxCell id="4bNCkAOgMDDqKvrWJ21n-19" value="0,n" style="text;html=1;resizable=0;points=[];align=center;verticalAlign=middle;labelBackgroundColor=#ffffff;direction=south;fontSize=16;" parent="4bNCkAOgMDDqKvrWJ21n-18" vertex="1" connectable="0">
          <mxGeometry x="-0.77" y="-1" relative="1" as="geometry">
            <mxPoint x="1" y="39" as="offset" />
          </mxGeometry>
        </mxCell>
        <mxCell id="4bNCkAOgMDDqKvrWJ21n-20" style="edgeStyle=orthogonalEdgeStyle;html=1;labelBackgroundColor=none;startArrow=none;endArrow=none;fontFamily=Verdana;fontSize=12;align=left;exitX=1;exitY=0.5;exitDx=0;exitDy=0;entryX=0.5;entryY=1;entryDx=0;entryDy=0;startFill=0;endFill=0;rounded=0;" parent="1" source="4bNCkAOgMDDqKvrWJ21n-13" target="Gy9qdy7r6_L6vcuzWhop-16" edge="1">
          <mxGeometry relative="1" as="geometry">
            <mxPoint x="820" y="257.25" as="targetPoint" />
            <mxPoint x="620" y="342.25" as="sourcePoint" />
          </mxGeometry>
        </mxCell>
        <mxCell id="4bNCkAOgMDDqKvrWJ21n-21" value="0,n" style="text;html=1;resizable=0;points=[];align=center;verticalAlign=middle;labelBackgroundColor=#ffffff;direction=south;fontSize=16;" parent="4bNCkAOgMDDqKvrWJ21n-20" vertex="1" connectable="0">
          <mxGeometry x="-0.77" y="-1" relative="1" as="geometry">
            <mxPoint x="176" y="-1" as="offset" />
          </mxGeometry>
        </mxCell>
        <mxCell id="4bNCkAOgMDDqKvrWJ21n-22" value="&lt;div style=&quot;box-sizing: border-box ; width: 100% ; padding: 2px&quot;&gt;&lt;br&gt;&lt;/div&gt;" style="verticalAlign=top;align=center;overflow=fill;html=1;rounded=0;shadow=0;comic=0;labelBackgroundColor=none;strokeColor=#000000;strokeWidth=1;fillColor=#ffffff;fontFamily=Verdana;fontSize=12;fontColor=#000000;" parent="1" vertex="1">
          <mxGeometry x="90" y="375" width="200" height="60" as="geometry" />
        </mxCell>
        <mxCell id="4bNCkAOgMDDqKvrWJ21n-23" value="Marques" style="rounded=0;whiteSpace=wrap;html=1;" parent="1" vertex="1">
          <mxGeometry x="90" y="375" width="200" height="20" as="geometry" />
        </mxCell>
        <mxCell id="4bNCkAOgMDDqKvrWJ21n-24" value="&lt;u&gt;Nom&lt;/u&gt;" style="text;html=1;strokeColor=none;fillColor=none;align=left;verticalAlign=top;whiteSpace=wrap;rounded=0;" parent="1" vertex="1">
          <mxGeometry x="90" y="395" width="100" height="60" as="geometry" />
        </mxCell>
        <mxCell id="4bNCkAOgMDDqKvrWJ21n-25" value="&lt;u&gt;Texte&lt;/u&gt;" style="text;html=1;strokeColor=none;fillColor=none;align=left;verticalAlign=top;whiteSpace=wrap;rounded=0;" parent="1" vertex="1">
          <mxGeometry x="210" y="395" width="80" height="50" as="geometry" />
        </mxCell>
        <mxCell id="4bNCkAOgMDDqKvrWJ21n-26" value="&lt;div style=&quot;box-sizing: border-box ; width: 100% ; padding: 2px&quot;&gt;&lt;br&gt;&lt;/div&gt;" style="verticalAlign=top;align=center;overflow=fill;html=1;rounded=0;shadow=0;comic=0;labelBackgroundColor=none;strokeColor=#000000;strokeWidth=1;fillColor=#ffffff;fontFamily=Verdana;fontSize=12;fontColor=#000000;" parent="1" vertex="1">
          <mxGeometry x="680" y="345" width="200" height="120" as="geometry" />
        </mxCell>
        <mxCell id="4bNCkAOgMDDqKvrWJ21n-27" value="Voitures" style="rounded=0;whiteSpace=wrap;html=1;" parent="1" vertex="1">
          <mxGeometry x="680" y="345" width="200" height="20" as="geometry" />
        </mxCell>
        <mxCell id="4bNCkAOgMDDqKvrWJ21n-28" value="&lt;u&gt;Numéro&lt;/u&gt;&lt;br&gt;Modèle&lt;br&gt;Année&lt;br&gt;Kilomètrage&lt;br&gt;Images&lt;br&gt;Description" style="text;html=1;strokeColor=none;fillColor=none;align=left;verticalAlign=top;whiteSpace=wrap;rounded=0;" parent="1" vertex="1">
          <mxGeometry x="680" y="365" width="110" height="20" as="geometry" />
        </mxCell>
        <mxCell id="4bNCkAOgMDDqKvrWJ21n-29" value="&lt;u&gt;Num&lt;br&gt;&lt;/u&gt;Texte&lt;br&gt;Num&lt;br&gt;Num&lt;br&gt;Texte&lt;br&gt;Texte" style="text;html=1;strokeColor=none;fillColor=none;align=left;verticalAlign=top;whiteSpace=wrap;rounded=0;" parent="1" vertex="1">
          <mxGeometry x="800" y="365" width="80" height="20" as="geometry" />
        </mxCell>
        <mxCell id="4bNCkAOgMDDqKvrWJ21n-30" value="&lt;div style=&quot;box-sizing: border-box ; width: 100% ; padding: 2px&quot;&gt;&lt;br&gt;&lt;/div&gt;" style="verticalAlign=top;align=center;overflow=fill;html=1;rounded=1;shadow=0;comic=0;labelBackgroundColor=none;strokeColor=#000000;strokeWidth=1;fillColor=#ffffff;fontFamily=Verdana;fontSize=12;fontColor=#000000;" parent="1" vertex="1">
          <mxGeometry x="390" y="370" width="180" height="70" as="geometry" />
        </mxCell>
        <mxCell id="4bNCkAOgMDDqKvrWJ21n-33" value="" style="endArrow=none;html=1;entryX=1;entryY=0.25;entryDx=0;entryDy=0;exitX=0;exitY=0.25;exitDx=0;exitDy=0;" parent="1" source="4bNCkAOgMDDqKvrWJ21n-30" target="4bNCkAOgMDDqKvrWJ21n-30" edge="1">
          <mxGeometry width="50" height="50" relative="1" as="geometry">
            <mxPoint x="110" y="520" as="sourcePoint" />
            <mxPoint x="160" y="470" as="targetPoint" />
          </mxGeometry>
        </mxCell>
        <mxCell id="4bNCkAOgMDDqKvrWJ21n-34" value="Appartenir" style="text;html=1;strokeColor=none;fillColor=none;align=center;verticalAlign=middle;whiteSpace=wrap;rounded=0;" parent="1" vertex="1">
          <mxGeometry x="414" y="370" width="120" height="20" as="geometry" />
        </mxCell>
        <mxCell id="4bNCkAOgMDDqKvrWJ21n-35" style="edgeStyle=orthogonalEdgeStyle;html=1;labelBackgroundColor=none;startArrow=none;endArrow=none;fontFamily=Verdana;fontSize=12;align=left;exitX=1;exitY=0.5;exitDx=0;exitDy=0;entryX=0;entryY=0.5;entryDx=0;entryDy=0;startFill=0;endFill=0;rounded=0;" parent="1" source="4bNCkAOgMDDqKvrWJ21n-22" target="4bNCkAOgMDDqKvrWJ21n-30" edge="1">
          <mxGeometry relative="1" as="geometry">
            <mxPoint x="400" y="359.58000000000004" as="targetPoint" />
            <mxPoint x="300" y="359.58000000000004" as="sourcePoint" />
          </mxGeometry>
        </mxCell>
        <mxCell id="4bNCkAOgMDDqKvrWJ21n-36" value="0,n" style="text;html=1;resizable=0;points=[];align=center;verticalAlign=middle;labelBackgroundColor=#ffffff;direction=south;fontSize=16;" parent="4bNCkAOgMDDqKvrWJ21n-35" vertex="1" connectable="0">
          <mxGeometry x="-0.77" y="-1" relative="1" as="geometry">
            <mxPoint x="31" y="-1" as="offset" />
          </mxGeometry>
        </mxCell>
        <mxCell id="4bNCkAOgMDDqKvrWJ21n-37" style="edgeStyle=orthogonalEdgeStyle;html=1;labelBackgroundColor=none;startArrow=none;endArrow=none;fontFamily=Verdana;fontSize=12;align=left;exitX=1;exitY=0.5;exitDx=0;exitDy=0;entryX=0;entryY=0.5;entryDx=0;entryDy=0;startFill=0;endFill=0;rounded=0;" parent="1" source="4bNCkAOgMDDqKvrWJ21n-30" target="4bNCkAOgMDDqKvrWJ21n-26" edge="1">
          <mxGeometry relative="1" as="geometry">
            <mxPoint x="634" y="370" as="targetPoint" />
            <mxPoint x="534" y="365" as="sourcePoint" />
          </mxGeometry>
        </mxCell>
        <mxCell id="4bNCkAOgMDDqKvrWJ21n-38" value="1,1" style="text;html=1;resizable=0;points=[];align=center;verticalAlign=middle;labelBackgroundColor=#ffffff;direction=south;fontSize=16;" parent="4bNCkAOgMDDqKvrWJ21n-37" vertex="1" connectable="0">
          <mxGeometry x="-0.77" y="-1" relative="1" as="geometry">
            <mxPoint x="38" y="-1" as="offset" />
          </mxGeometry>
        </mxCell>
        <mxCell id="4bNCkAOgMDDqKvrWJ21n-43" value="&lt;div style=&quot;box-sizing: border-box ; width: 100% ; padding: 2px&quot;&gt;&lt;br&gt;&lt;/div&gt;" style="verticalAlign=top;align=center;overflow=fill;html=1;rounded=0;shadow=0;comic=0;labelBackgroundColor=none;strokeColor=#000000;strokeWidth=1;fillColor=#ffffff;fontFamily=Verdana;fontSize=12;fontColor=#000000;" parent="1" vertex="1">
          <mxGeometry x="90" y="505" width="200" height="60" as="geometry" />
        </mxCell>
        <mxCell id="4bNCkAOgMDDqKvrWJ21n-44" value="Motorisation" style="rounded=0;whiteSpace=wrap;html=1;" parent="1" vertex="1">
          <mxGeometry x="90" y="505" width="200" height="20" as="geometry" />
        </mxCell>
        <mxCell id="4bNCkAOgMDDqKvrWJ21n-45" value="&lt;u&gt;Type&lt;/u&gt;" style="text;html=1;strokeColor=none;fillColor=none;align=left;verticalAlign=top;whiteSpace=wrap;rounded=0;" parent="1" vertex="1">
          <mxGeometry x="90" y="525" width="100" height="60" as="geometry" />
        </mxCell>
        <mxCell id="4bNCkAOgMDDqKvrWJ21n-46" value="&lt;u&gt;Texte&lt;/u&gt;" style="text;html=1;strokeColor=none;fillColor=none;align=left;verticalAlign=top;whiteSpace=wrap;rounded=0;" parent="1" vertex="1">
          <mxGeometry x="210" y="525" width="80" height="50" as="geometry" />
        </mxCell>
        <mxCell id="4bNCkAOgMDDqKvrWJ21n-47" value="&lt;div style=&quot;box-sizing: border-box ; width: 100% ; padding: 2px&quot;&gt;&lt;br&gt;&lt;/div&gt;" style="verticalAlign=top;align=center;overflow=fill;html=1;rounded=1;shadow=0;comic=0;labelBackgroundColor=none;strokeColor=#000000;strokeWidth=1;fillColor=#ffffff;fontFamily=Verdana;fontSize=12;fontColor=#000000;" parent="1" vertex="1">
          <mxGeometry x="390" y="500" width="180" height="70" as="geometry" />
        </mxCell>
        <mxCell id="4bNCkAOgMDDqKvrWJ21n-48" value="" style="endArrow=none;html=1;entryX=1;entryY=0.25;entryDx=0;entryDy=0;exitX=0;exitY=0.25;exitDx=0;exitDy=0;" parent="1" source="4bNCkAOgMDDqKvrWJ21n-47" target="4bNCkAOgMDDqKvrWJ21n-47" edge="1">
          <mxGeometry width="50" height="50" relative="1" as="geometry">
            <mxPoint x="110" y="650" as="sourcePoint" />
            <mxPoint x="160" y="600" as="targetPoint" />
          </mxGeometry>
        </mxCell>
        <mxCell id="4bNCkAOgMDDqKvrWJ21n-49" value="Avoir" style="text;html=1;strokeColor=none;fillColor=none;align=center;verticalAlign=middle;whiteSpace=wrap;rounded=0;" parent="1" vertex="1">
          <mxGeometry x="414" y="500" width="120" height="20" as="geometry" />
        </mxCell>
        <mxCell id="4bNCkAOgMDDqKvrWJ21n-50" style="edgeStyle=orthogonalEdgeStyle;html=1;labelBackgroundColor=none;startArrow=none;endArrow=none;fontFamily=Verdana;fontSize=12;align=left;exitX=1;exitY=0.5;exitDx=0;exitDy=0;entryX=0;entryY=0.5;entryDx=0;entryDy=0;startFill=0;endFill=0;rounded=0;" parent="1" source="4bNCkAOgMDDqKvrWJ21n-43" target="4bNCkAOgMDDqKvrWJ21n-47" edge="1">
          <mxGeometry relative="1" as="geometry">
            <mxPoint x="400" y="489.58000000000004" as="targetPoint" />
            <mxPoint x="300" y="489.58000000000004" as="sourcePoint" />
          </mxGeometry>
        </mxCell>
        <mxCell id="4bNCkAOgMDDqKvrWJ21n-51" value="0,n" style="text;html=1;resizable=0;points=[];align=center;verticalAlign=middle;labelBackgroundColor=#ffffff;direction=south;fontSize=16;" parent="4bNCkAOgMDDqKvrWJ21n-50" vertex="1" connectable="0">
          <mxGeometry x="-0.77" y="-1" relative="1" as="geometry">
            <mxPoint x="31" y="-1" as="offset" />
          </mxGeometry>
        </mxCell>
        <mxCell id="4bNCkAOgMDDqKvrWJ21n-52" style="edgeStyle=orthogonalEdgeStyle;html=1;labelBackgroundColor=none;startArrow=none;endArrow=none;fontFamily=Verdana;fontSize=12;align=left;exitX=1;exitY=0.5;exitDx=0;exitDy=0;entryX=0.5;entryY=1;entryDx=0;entryDy=0;startFill=0;endFill=0;rounded=0;" parent="1" source="4bNCkAOgMDDqKvrWJ21n-47" target="4bNCkAOgMDDqKvrWJ21n-26" edge="1">
          <mxGeometry relative="1" as="geometry">
            <mxPoint x="710" y="514.58" as="targetPoint" />
            <mxPoint x="600" y="514.58" as="sourcePoint" />
          </mxGeometry>
        </mxCell>
        <mxCell id="4bNCkAOgMDDqKvrWJ21n-53" value="1,1" style="text;html=1;resizable=0;points=[];align=center;verticalAlign=middle;labelBackgroundColor=#ffffff;direction=south;fontSize=16;" parent="4bNCkAOgMDDqKvrWJ21n-52" vertex="1" connectable="0">
          <mxGeometry x="-0.77" y="-1" relative="1" as="geometry">
            <mxPoint x="178" y="-1" as="offset" />
          </mxGeometry>
        </mxCell>
        <mxCell id="4bNCkAOgMDDqKvrWJ21n-54" value="&lt;div style=&quot;box-sizing: border-box ; width: 100% ; padding: 2px&quot;&gt;&lt;br&gt;&lt;/div&gt;" style="verticalAlign=top;align=center;overflow=fill;html=1;rounded=1;shadow=0;comic=0;labelBackgroundColor=none;strokeColor=#000000;strokeWidth=1;fillColor=#ffffff;fontFamily=Verdana;fontSize=12;fontColor=#000000;" parent="1" vertex="1">
          <mxGeometry x="900" y="245" width="180" height="70" as="geometry" />
        </mxCell>
        <mxCell id="4bNCkAOgMDDqKvrWJ21n-57" value="" style="endArrow=none;html=1;entryX=1;entryY=0.25;entryDx=0;entryDy=0;exitX=0;exitY=0.25;exitDx=0;exitDy=0;" parent="1" source="4bNCkAOgMDDqKvrWJ21n-54" target="4bNCkAOgMDDqKvrWJ21n-54" edge="1">
          <mxGeometry width="50" height="50" relative="1" as="geometry">
            <mxPoint x="620" y="395" as="sourcePoint" />
            <mxPoint x="670" y="345" as="targetPoint" />
          </mxGeometry>
        </mxCell>
        <mxCell id="4bNCkAOgMDDqKvrWJ21n-58" value="Appartenir" style="text;html=1;strokeColor=none;fillColor=none;align=center;verticalAlign=middle;whiteSpace=wrap;rounded=0;" parent="1" vertex="1">
          <mxGeometry x="924" y="245" width="120" height="20" as="geometry" />
        </mxCell>
        <mxCell id="4bNCkAOgMDDqKvrWJ21n-59" style="edgeStyle=orthogonalEdgeStyle;html=1;labelBackgroundColor=none;startArrow=none;endArrow=none;fontFamily=Verdana;fontSize=12;align=left;exitX=1;exitY=0.5;exitDx=0;exitDy=0;entryX=0.5;entryY=1;entryDx=0;entryDy=0;startFill=0;endFill=0;rounded=0;" parent="1" source="4bNCkAOgMDDqKvrWJ21n-26" target="4bNCkAOgMDDqKvrWJ21n-54" edge="1">
          <mxGeometry relative="1" as="geometry">
            <mxPoint x="1110" y="375" as="targetPoint" />
            <mxPoint x="900" y="440" as="sourcePoint" />
          </mxGeometry>
        </mxCell>
        <mxCell id="4bNCkAOgMDDqKvrWJ21n-60" value="1,1" style="text;html=1;resizable=0;points=[];align=center;verticalAlign=middle;labelBackgroundColor=#ffffff;direction=south;fontSize=16;" parent="4bNCkAOgMDDqKvrWJ21n-59" vertex="1" connectable="0">
          <mxGeometry x="-0.77" y="-1" relative="1" as="geometry">
            <mxPoint x="87" y="-1" as="offset" />
          </mxGeometry>
        </mxCell>
        <mxCell id="4bNCkAOgMDDqKvrWJ21n-61" value="" style="edgeStyle=orthogonalEdgeStyle;rounded=0;orthogonalLoop=1;jettySize=auto;html=1;startArrow=none;startFill=0;endArrow=none;endFill=0;entryX=1;entryY=0.5;entryDx=0;entryDy=0;exitX=0.5;exitY=0;exitDx=0;exitDy=0;" parent="1" source="4bNCkAOgMDDqKvrWJ21n-54" target="Gy9qdy7r6_L6vcuzWhop-16" edge="1">
          <mxGeometry relative="1" as="geometry">
            <mxPoint x="1120" y="144.5" as="sourcePoint" />
            <mxPoint x="910" y="74.5" as="targetPoint" />
          </mxGeometry>
        </mxCell>
        <mxCell id="4bNCkAOgMDDqKvrWJ21n-62" value="1,1" style="text;html=1;resizable=0;points=[];align=center;verticalAlign=middle;labelBackgroundColor=#ffffff;fontSize=16;" parent="4bNCkAOgMDDqKvrWJ21n-61" vertex="1" connectable="0">
          <mxGeometry x="-0.6462" relative="1" as="geometry">
            <mxPoint y="-51" as="offset" />
          </mxGeometry>
        </mxCell>
      </root>
    </mxGraphModel>
  </diagram>
</mxfile>
